<?xml version="1.0" encoding="UTF-8"?>
<svg version="1.1" xmlns="http://www.w3.org/2000/svg" width="500" height="500" viewBox="0 0 500 500">
<path d="M0 0 C4.47870656 2.15937638 7.18198188 4.92952939 10 9 C12.21200054 15.63600163 11.39341031 21.68454377 8.34765625 27.91796875 C5.77723194 31.88908805 2.22102817 34.88948592 -2 37 C-3.98828125 37.203125 -3.98828125 37.203125 -6.3125 37.25 C-7.07175781 37.27578125 -7.83101562 37.3015625 -8.61328125 37.328125 C-11.61358546 36.91564455 -13.50973494 35.67486854 -16 34 C-16.08150744 36.06183633 -16.1394194 38.12461349 -16.1875 40.1875 C-16.22230469 41.33605469 -16.25710937 42.48460937 -16.29296875 43.66796875 C-15.9688428 47.35436126 -15.29981382 49.12523272 -13 52 C-11.00306313 53.21143606 -11.00306313 53.21143606 -8.8125 53.8125 C-7.554375 54.204375 -6.29625 54.59625 -5 55 C-5.33 54.34 -5.66 53.68 -6 53 C-6.59571052 47.14217993 -6.0252399 44.1446085 -2.484375 39.4453125 C0.44366528 36.59432591 3.34154351 35.68279607 7.375 35.5625 C10.86620505 35.62587171 12.79093433 36.15670709 15.5 38.375 C19.23985596 42.30184875 19.2181014 44.55837381 19.16015625 49.7734375 C18.96335831 52.50940888 18.10085942 54.49248688 17 57 C16.7111427 58.55926855 16.44268455 60.12236812 16.1875 61.6875 C14.19519334 71.84524534 9.54637746 79.09795624 1 85 C-7.71410172 89.85680952 -17.73730893 91.23471921 -27.453125 88.9140625 C-35.68025457 85.96138103 -42.84817413 80.78467351 -47 73 C-51.16273283 64.06177196 -51.75811404 53.5313512 -49.19140625 43.99609375 C-46.62576876 38.46532504 -42.66958869 33.93833262 -38.7265625 29.3359375 C-36.54836756 26.74081603 -34.55758729 24.04413484 -32.5859375 21.2890625 C-31.98386475 20.44980225 -31.38179199 19.61054199 -30.76147461 18.74584961 C-29.57305717 17.07894741 -28.3936893 15.4055444 -27.22485352 13.72485352 C-19.79257458 3.3508758 -12.90006287 -1.21571273 0 0 Z " fill="#FE7C42" transform="translate(209,205)"/>
<path d="M0 0 C3.19146506 1.92988165 5.33038297 4.16693534 7.375 7.3125 C7.7344873 7.84004883 8.09397461 8.36759766 8.46435547 8.91113281 C9.87748089 12.63754075 9.61929403 16.28440862 9.5703125 20.234375 C9.5674826 21.09436096 9.56465271 21.95434692 9.56173706 22.84039307 C9.5505615 25.58123821 9.52546179 28.32175398 9.5 31.0625 C9.4899668 32.92317236 9.48084155 34.78384985 9.47265625 36.64453125 C9.45063076 41.20064732 9.41611897 45.75651786 9.375 50.3125 C6.735 50.3125 4.095 50.3125 1.375 50.3125 C0.88 47.3425 0.88 47.3425 0.375 44.3125 C-0.09550781 44.73402344 -0.56601562 45.15554688 -1.05078125 45.58984375 C-1.67339844 46.13769531 -2.29601562 46.68554688 -2.9375 47.25 C-3.55238281 47.79527344 -4.16726563 48.34054687 -4.80078125 48.90234375 C-9.94395297 52.87811461 -17.5002526 51.90193919 -23.625 51.3125 C-28.49303228 49.67760362 -30.95131498 47.40723815 -33.625 43.0625 C-35.06008665 37.68092506 -36.20709242 33.14646618 -33.37109375 28.06640625 C-29.23766765 22.83968415 -25.07716706 20.7447712 -18.625 19.3125 C-15.25455157 18.99884783 -11.94335751 19.02270873 -8.5625 19.125 C-7.69689453 19.13853516 -6.83128906 19.15207031 -5.93945312 19.16601562 C-3.83435826 19.2009067 -1.72959026 19.25469335 0.375 19.3125 C0.0909062 17.85241181 -0.20415622 16.39445461 -0.50390625 14.9375 C-0.66705322 14.12539062 -0.8302002 13.31328125 -0.99829102 12.4765625 C-1.4928282 10.13641671 -1.4928282 10.13641671 -3.5625 8.3125 C-7.7440849 6.2850649 -11.00462274 5.92746856 -15.625 6.3125 C-19.45523712 7.73053547 -22.12120374 9.34871584 -24.0625 13.0625 C-24.248125 13.805 -24.43375 14.5475 -24.625 15.3125 C-27.595 15.3125 -30.565 15.3125 -33.625 15.3125 C-33.3355051 9.37785452 -30.87667375 6.17171156 -26.625 2.3125 C-19.42819793 -3.38148957 -8.21012366 -3.76681703 0 0 Z " fill="#41484B" transform="translate(336.625,234.6875)"/>
<path d="M0 0 C3.31457722 1.94551271 4.67494786 3.15868857 6.0625 6.75 C5.96533335 11.80266583 3.83600175 15.85298156 0.5703125 19.671875 C-2.17946038 21.99755355 -4.4811657 22.06066956 -8 22 C-10.19630123 20.20352418 -11.38906502 18.39199436 -13 16 C-14.87880872 16.04768403 -14.87880872 16.04768403 -17 17 C-22.18033656 23.80844234 -22.78174708 29.64375755 -22 38 C-20.55200908 42.58052573 -19.02041489 45.31972341 -15 48 C-15 48.66 -15 49.32 -15 50 C-15.928125 50.598125 -16.85625 51.19625 -17.8125 51.8125 C-21.1119828 54.07685094 -22.54038179 55.30802453 -24 59 C-23.85830698 63.65089039 -23.85830698 63.65089039 -21.734375 67.66015625 C-18.36565256 70.26257021 -14.12252187 70.02369265 -10 70 C-6.92725552 69.54812581 -3.97966963 68.87086962 -1 68 C-5.10620155 72.35687083 -9.38768596 73.13487697 -15.25 73.375 C-23.32789443 73.17771086 -29.50084054 70.75332665 -35.4375 65.25 C-41.49854407 58.57672926 -42.74206654 52.19156279 -42.453125 43.234375 C-41.14487237 33.89615798 -35.02713781 28.98022583 -27.9699707 23.47192383 C-22.9809131 19.40124641 -19.96430147 14.78861216 -16.97924805 9.1262207 C-12.86500548 1.39111644 -8.64766512 -1.90541774 0 0 Z " fill="#FEFAF9" transform="translate(209,214)"/>
<path d="M0 0 C3.3 0 6.6 0 10 0 C10.07432823 6.99257092 10.12868714 13.98491026 10.16479492 20.9777832 C10.17985252 23.35510262 10.20030289 25.73239439 10.22631836 28.10961914 C10.26283403 31.53278439 10.27975709 34.95558132 10.29296875 38.37890625 C10.30845261 39.43646622 10.32393646 40.49402618 10.33988953 41.58363342 C10.34157594 49.02990562 9.55750252 53.97137859 4.625 59.8125 C0.1347522 63.55437316 -3.75220565 64.48954991 -9.5078125 64.40234375 C-14.1135556 63.65878334 -18.01217358 61.33108851 -22 59 C-21.45276317 55.62537285 -20.9451 53.91765 -19 51 C-16.82649692 51.46575066 -15.09219642 51.94686986 -13.15625 53.0625 C-10.54903961 54.19606973 -9.03954659 54.03522744 -6.25 53.625 C-5.45078125 53.51414062 -4.6515625 53.40328125 -3.828125 53.2890625 C-3.22484375 53.19367188 -2.6215625 53.09828125 -2 53 C-1.12449979 49.96197833 -0.8516368 47.2050114 -0.79467773 44.04785156 C-0.77473251 43.06713684 -0.75478729 42.08642212 -0.73423767 41.07598877 C-0.70916893 39.4992337 -0.70916893 39.4992337 -0.68359375 37.890625 C-0.66281265 36.80867859 -0.64203156 35.72673218 -0.62062073 34.61199951 C-0.55527069 31.15806387 -0.49630771 27.70405263 -0.4375 24.25 C-0.39430096 21.90754429 -0.35068622 19.5650962 -0.30664062 17.22265625 C-0.19960413 11.48184818 -0.09829552 5.74096412 0 0 Z " fill="#41494C" transform="translate(138,220)"/>
<path d="M0 0 C3 0.125 3 0.125 4 1.125 C4.09405142 3.1193173 4.11743249 5.11699543 4.11352539 7.11352539 C4.11344986 8.39477798 4.11337433 9.67603058 4.11329651 10.99610901 C4.10818909 12.40495848 4.10297309 13.81380756 4.09765625 15.22265625 C4.09579202 16.65612234 4.09436814 18.08958907 4.09336853 19.52305603 C4.08954372 23.30259957 4.07971377 27.0821049 4.06866455 30.8616333 C4.05844963 34.71569298 4.05387074 38.56975882 4.04882812 42.42382812 C4.03809146 49.99090287 4.02101549 57.55794609 4 65.125 C1.36 65.125 -1.28 65.125 -4 65.125 C-4.02312684 56.79771053 -4.04091683 48.47043437 -4.05181217 40.14312077 C-4.05704026 36.27679882 -4.06413654 32.41049879 -4.07543945 28.54418945 C-4.086271 24.81596599 -4.0922774 21.08776366 -4.09487724 17.35952568 C-4.09673101 15.93410344 -4.10035071 14.50868241 -4.10573006 13.08326912 C-4.11294393 11.09336592 -4.11340808 9.10344166 -4.11352539 7.11352539 C-4.115746 5.97879288 -4.11796661 4.84406036 -4.12025452 3.67494202 C-3.94613982 -0.01708048 -3.74755498 0.15614812 0 0 Z " fill="#23AC9F" transform="translate(242,217.875)"/>
<path d="M0 0 C2.97 0 5.94 0 9 0 C9 16.83 9 33.66 9 51 C6.03 51 3.06 51 0 51 C0 34.17 0 17.34 0 0 Z " fill="#434B4E" transform="translate(360,234)"/>
<path d="M0 0 C1.7109375 1.27734375 1.7109375 1.27734375 3 3 C3.262454 11.26730088 -0.14238106 17.44547771 -5 24 C-9.91134836 28.81850623 -15.17643247 31.99665602 -22.125 32.3125 C-26 32 -26 32 -28 30.5 C-28.33 30.005 -28.66 29.51 -29 29 C-27.6274296 24.50795141 -25.78997365 22.7025996 -22 20 C-18.95703125 18.515625 -18.95703125 18.515625 -15.8125 17.25 C-14.76707031 16.82203125 -13.72164062 16.3940625 -12.64453125 15.953125 C-10 15 -10 15 -8 15 C-8.7734375 13.700625 -8.7734375 13.700625 -9.5625 12.375 C-11.19200643 8.54920229 -11.22108979 6.92493147 -10 3 C-7.61338866 -0.97768557 -4.27600952 -0.45814388 0 0 Z " fill="#FEFBF9" transform="translate(219,247)"/>
<path d="M0 0 C0.89589844 0.00322266 1.79179687 0.00644531 2.71484375 0.00976562 C4.12056641 0.02233398 4.12056641 0.02233398 5.5546875 0.03515625 C6.49957031 0.03966797 7.44445312 0.04417969 8.41796875 0.04882812 C10.75527137 0.06063268 13.09244811 0.07709866 15.4296875 0.09765625 C14.73141537 6.24839375 13.50890489 10.41762389 9.4296875 15.09765625 C4.34105442 18.17003848 0.21176012 18.7504709 -5.5703125 18.09765625 C-8.3803471 16.30401714 -10.07971718 15.0788469 -11.5703125 12.09765625 C-11.9453125 9.28515625 -11.9453125 9.28515625 -11.5703125 6.09765625 C-7.86674309 1.71185037 -5.65156633 -0.03576941 0 0 Z " fill="#F9F8F9" transform="translate(322.5703125,260.90234375)"/>
<path d="M0 0 C2.64 0 5.28 0 8 0 C8 15.84 8 31.68 8 48 C5.36 48 2.72 48 0 48 C0 32.16 0 16.32 0 0 Z " fill="#21AC9E" transform="translate(259,235)"/>
<path d="M0 0 C1.9375 1.6875 1.9375 1.6875 3 4 C2.75925978 7.37036311 2.41201979 8.58798021 0 11 C-3.5 11.3125 -3.5 11.3125 -7 11 C-9.15502531 7.76746204 -9.46856135 6.74849077 -9 3 C-6.74280427 -0.63659311 -4.02330328 -0.58673173 0 0 Z " fill="#434A4D" transform="translate(290,274)"/>
<path d="M0 0 C1.8125 1.125 1.8125 1.125 3 3 C3.39769128 6.18153026 3.55198782 8.12844028 1.8125 10.875 C-0.65507108 12.40659584 -2.14519831 12.42822025 -5 12 C-6.8125 10.875 -6.8125 10.875 -8 9 C-8.39769128 5.81846974 -8.55198782 3.87155972 -6.8125 1.125 C-4.34492892 -0.40659584 -2.85480169 -0.42822025 0 0 Z " fill="#41494C" transform="translate(367,211)"/>
<path d="M0 0 C3 0.25 3 0.25 5 2.25 C5.3125 5.75 5.3125 5.75 5 9.25 C2 11.25 2 11.25 -0.5625 11 C-3 10.25 -3 10.25 -5 8.25 C-5.25 5.25 -5.25 5.25 -5 2.25 C-3 0.25 -3 0.25 0 0 Z " fill="#25ADA0" transform="translate(263,218.75)"/>
</svg>